<?xml version="1.0" encoding="UTF-8"?>
<svg id="Layer_2" data-name="Layer 2" xmlns="http://www.w3.org/2000/svg" viewBox="0 0 400 400">
  <defs>
    <style>
      .cls-1 {
        fill: #ff492c;
      }

      .cls-2 {
        fill: #fff;
      }
    </style>
  </defs>
  <g id="Layer_1-2" data-name="Layer 1">
    <g>
      <circle class="cls-1" cx="200" cy="200" r="200"/>
      <path class="cls-2" d="m286.56,153.2h-34.16c.92-5.36,4.24-8.36,10.96-11.76l6.28-3.2c11.24-5.76,17.24-12.28,17.24-22.92,0-6.68-2.6-11.96-7.76-15.76s-11.24-5.68-18.36-5.68c-5.51-.06-10.92,1.48-15.56,4.44-4.68,2.88-8.16,6.6-10.32,11.24l9.88,9.92c3.84-7.76,9.4-11.56,16.72-11.56,6.2,0,10,3.2,10,7.64,0,3.72-1.84,6.8-8.96,10.4l-4.04,1.96c-8.76,4.44-14.84,9.52-18.36,15.28s-5.24,13-5.24,21.76v2.4h51.68v-14.16Z"/>
      <polygon class="cls-2" points="282 183.68 225.44 183.68 197.16 232.64 253.72 232.64 282 281.64 310.28 232.64 282 183.68"/>
      <path class="cls-2" d="m202.04,265.32c-36,0-65.32-29.32-65.32-65.32s29.32-65.32,65.32-65.32l22.36-46.76c-7.36-1.46-14.85-2.2-22.36-2.2-63.12,0-114.28,51.16-114.28,114.28s51.16,114.28,114.28,114.28c24.19.05,47.76-7.63,67.28-21.92l-24.72-42.88c-11.83,10.22-26.93,15.84-42.56,15.84Z"/>
    </g>
  </g>
</svg>