<svg xmlns="http://www.w3.org/2000/svg" width="356.279" height="400" viewBox="0 0 356.279 400">
  <g id="G2_-_leader_-_enterprise_-_winter_-_2025" data-name="G2 - leader - enterprise - winter - 2025" transform="translate(-0.4 -8.699)">
    <path id="Path_115492" data-name="Path 115492" d="M8.1,312.738l151.486,77.085,145.733-77.085V11.3H8.1Z" transform="translate(21.83 7.371)" fill="#fff"/>
    <path id="Path_115493" data-name="Path 115493" d="M310.655,11.6,7.3,317.256l157.238,77.852,146.117-74.784Z" transform="translate(19.562 8.222)" fill="#f2f3f2"/>
    <path id="Path_115494" data-name="Path 115494" d="M5.5,119.15V326.628l5.369,2.685L162.355,406.4l4.6,2.3,4.6-2.3,146.117-77.085,5.369-2.685V8.7H5.5Zm9.971,201.725V18.671h297.6v302.2L166.957,397.961Z" transform="translate(14.459 0)" fill="#dcdedc"/>
    <path id="Path_115495" data-name="Path 115495" d="M178.731,23.657a18.671,18.671,0,0,1,4.6.384l-4.6,8.821A12.679,12.679,0,0,0,177.2,58.173h1.534a13.4,13.4,0,0,0,8.437-3.068l4.986,8.437a23.247,23.247,0,0,1-13.423,4.219c-12.272.384-22.627-8.821-23.01-21.093s8.821-22.627,21.093-23.011h1.918Zm15.724,18.792,5.753,9.588-5.753,9.2-5.369-9.2H177.964l5.753-9.588ZM185.251,39a7.731,7.731,0,0,1,1.151-4.219,13.231,13.231,0,0,1,3.452-3.068l.767-.384c1.534-.767,1.918-1.151,1.918-1.918s-1.151-1.534-1.918-1.534a3.685,3.685,0,0,0-3.452,2.3l-1.918-1.918a10.168,10.168,0,0,1,1.918-2.3,5.7,5.7,0,0,1,3.452-.767,5.354,5.354,0,0,1,3.452,1.151,4.734,4.734,0,0,1,1.534,3.068c0,1.918-1.151,3.452-3.452,4.219L191,34.4c-1.151.767-1.918,1.151-2.3,2.3h6.9v2.685L185.251,39Zm-6.52,47.939,36.433-20.709V8.7h-73.25V65.843l36.817,21.093ZM344.79,222.7H12.672L.4,249.543l12.272,26.846H344.79l11.889-26.846Z" transform="translate(0 0)" fill="#ff492c"/>
    <path id="Path_115496" data-name="Path 115496" d="M19.685,95.722a.78.78,0,0,1-.575-.23.916.916,0,0,1-.23-.614V48.244a.916.916,0,0,1,.23-.614.78.78,0,0,1,.575-.23h8.092a.78.78,0,0,1,.575.23.845.845,0,0,1,.268.614V87.016a.305.305,0,0,0,.345.345h22.55a.792.792,0,0,1,.844.844v6.673a.792.792,0,0,1-.844.844H19.685Zm69.453-21.4a28.534,28.534,0,0,1,.268,5.868.784.784,0,0,1-.882.844H67.2q-.422,0-.268.345a12.258,12.258,0,0,0,.729,2.761q1.8,3.835,7.325,3.835a8.279,8.279,0,0,0,6.98-3.567.631.631,0,0,1,1.112-.153l4.947,4.909a.95.95,0,0,1,.345.614,1.449,1.449,0,0,1-.268.575,15.2,15.2,0,0,1-5.868,4.372,19.693,19.693,0,0,1-7.862,1.534,17.962,17.962,0,0,1-10.048-2.685,14.958,14.958,0,0,1-5.906-7.517,23.581,23.581,0,0,1-1.457-9.051A19.668,19.668,0,0,1,58,70.334a15.424,15.424,0,0,1,5.561-7.824,15.7,15.7,0,0,1,9.434-2.876q6.9,0,11.083,3.988a17.385,17.385,0,0,1,5.062,10.7ZM73.07,68.033A5.547,5.547,0,0,0,67.317,72.1a16.8,16.8,0,0,0-.46,2.224.305.305,0,0,0,.345.345H79.129q.422,0,.268-.345-.345-1.994-.345-1.918A6.026,6.026,0,0,0,76.9,69.183a6.317,6.317,0,0,0-3.835-1.151Zm36.165-8.36a19.5,19.5,0,0,1,8.015,1.572,12.883,12.883,0,0,1,5.484,4.257,9.92,9.92,0,0,1,1.956,5.983V94.878a.916.916,0,0,1-.23.614.78.78,0,0,1-.575.23h-8.092a.78.78,0,0,1-.575-.23.845.845,0,0,1-.268-.614V92.616a.3.3,0,0,0-.115-.268q-.153-.077-.268.115-2.915,3.8-9.319,3.8a13.632,13.632,0,0,1-8.706-2.608Q93.2,91.043,93.2,85.9a9.892,9.892,0,0,1,3.758-8.245q3.72-2.915,10.623-2.915H114.6a.305.305,0,0,0,.345-.345V72.865a4.67,4.67,0,0,0-1.381-3.567,5.948,5.948,0,0,0-4.142-1.266,7.35,7.35,0,0,0-3.528.767,3.6,3.6,0,0,0-1.841,2.148q-.192.767-.882.69l-8.36-1.112q-.844-.153-.767-.614a9.136,9.136,0,0,1,2.3-5.254,13.393,13.393,0,0,1,5.407-3.643,19.88,19.88,0,0,1,7.478-1.342Zm-1.381,29.338a8.066,8.066,0,0,0,5.024-1.572,4.881,4.881,0,0,0,2.071-4.065V80.88a.305.305,0,0,0-.345-.345h-4.947a8.63,8.63,0,0,0-4.871,1.189,3.706,3.706,0,0,0-1.764,3.3,3.509,3.509,0,0,0,1.3,2.915,5.383,5.383,0,0,0,3.528,1.074Zm45.714-40.767a.916.916,0,0,1,.23-.614.78.78,0,0,1,.575-.23h8.092a.78.78,0,0,1,.575.23.916.916,0,0,1,.23.614V94.878a.916.916,0,0,1-.23.614.78.78,0,0,1-.575.23h-8.092a.78.78,0,0,1-.575-.23.916.916,0,0,1-.23-.614V92.616a.206.206,0,0,0-.153-.23.266.266,0,0,0-.268.077,9.471,9.471,0,0,1-7.939,3.8,13.248,13.248,0,0,1-8.322-2.685,14.831,14.831,0,0,1-5.024-7.363,27.534,27.534,0,0,1-1.151-8.36,26.835,26.835,0,0,1,1.227-8.552,14.862,14.862,0,0,1,5.024-7.018,13.489,13.489,0,0,1,8.437-2.608,9.359,9.359,0,0,1,7.747,3.452q.115.23.268.153a.275.275,0,0,0,.153-.268V48.244Zm-1.457,36.7a14.694,14.694,0,0,0,1.381-6.98,14.478,14.478,0,0,0-1.534-7.248,5.03,5.03,0,0,0-4.6-2.685,5.394,5.394,0,0,0-4.909,2.685,13.563,13.563,0,0,0-1.726,7.325,14.681,14.681,0,0,0,1.457,6.9,5.547,5.547,0,0,0,5.1,2.991A5.342,5.342,0,0,0,152.111,84.945Zm49.894-10.623a28.535,28.535,0,0,1,.268,5.868.784.784,0,0,1-.882.844H180.069q-.422,0-.268.345a12.257,12.257,0,0,0,.729,2.761q1.8,3.835,7.325,3.835a8.279,8.279,0,0,0,6.98-3.567.631.631,0,0,1,1.112-.153l4.947,4.909a.95.95,0,0,1,.345.614,1.449,1.449,0,0,1-.268.575,15.2,15.2,0,0,1-5.868,4.372,19.693,19.693,0,0,1-7.862,1.534,17.962,17.962,0,0,1-10.048-2.685,14.958,14.958,0,0,1-5.906-7.517,23.581,23.581,0,0,1-1.457-9.051,19.668,19.668,0,0,1,1.035-6.673,15.424,15.424,0,0,1,5.561-7.824,15.7,15.7,0,0,1,9.434-2.876q6.9,0,11.083,3.988A17.385,17.385,0,0,1,202.005,74.322Zm-16.069-6.29a5.547,5.547,0,0,0-5.753,4.065,16.8,16.8,0,0,0-.46,2.224.305.305,0,0,0,.345.345H192q.422,0,.268-.345-.345-1.994-.345-1.918a6.026,6.026,0,0,0-2.148-3.221,6.317,6.317,0,0,0-3.835-1.151Zm40.038-8.284a6.915,6.915,0,0,1,3.912.959.852.852,0,0,1,.422,1.035l-1.457,7.9q-.038.805-.959.46a7.648,7.648,0,0,0-2.416-.345,10.115,10.115,0,0,0-1.5.153,6.75,6.75,0,0,0-4.219,1.8,5.719,5.719,0,0,0-1.726,4.334v18.83a.792.792,0,0,1-.844.844h-8.054a.792.792,0,0,1-.844-.844V61.053a.78.78,0,0,1,.23-.575.916.916,0,0,1,.614-.23h8.054a.916.916,0,0,1,.614.23.781.781,0,0,1,.23.575V63.7a.3.3,0,0,0,.115.268.152.152,0,0,0,.23-.077,8.781,8.781,0,0,1,7.593-4.142Z" transform="translate(52.392 109.718)" fill="#252530"/>
    <path id="Path_115497" data-name="Path 115497" d="M42.178,72.427a.415.415,0,0,1-.115.307.477.477,0,0,1-.345.153H28.64a.169.169,0,0,0-.192.192v7.172a.169.169,0,0,0,.192.192h8.782a.407.407,0,0,1,.46.46v2.915a.407.407,0,0,1-.46.46H28.64a.169.169,0,0,0-.192.192v7.4a.169.169,0,0,0,.192.192H41.718a.477.477,0,0,1,.345.153.415.415,0,0,1,.115.307v2.915a.415.415,0,0,1-.115.307.477.477,0,0,1-.345.153H24.46a.542.542,0,0,1-.46-.46V69.512a.542.542,0,0,1,.46-.46H41.718a.477.477,0,0,1,.345.153.415.415,0,0,1,.115.307v2.915Zm13.5,3.567A6.355,6.355,0,0,1,62.5,82.858V95.437a.542.542,0,0,1-.46.46H58.516a.477.477,0,0,1-.345-.153.415.415,0,0,1-.115-.307V83.779a4.146,4.146,0,0,0-1-2.876,3.439,3.439,0,0,0-2.646-1.074A3.563,3.563,0,0,0,51.728,80.9a4,4,0,0,0-1,2.838v11.7a.415.415,0,0,1-.115.307.477.477,0,0,1-.345.153H46.742a.542.542,0,0,1-.46-.46V76.761a.477.477,0,0,1,.153-.345.415.415,0,0,1,.307-.115H50.27a.407.407,0,0,1,.46.46v1.227a.155.155,0,0,0,.077.153q.077.038.115-.077a5.591,5.591,0,0,1,4.756-2.071Zm21.86,3.452a.542.542,0,0,1-.46.46H73.166a.169.169,0,0,0-.192.192V89.34a3.014,3.014,0,0,0,.614,2.109,2.773,2.773,0,0,0,2.033.652h1.151a.415.415,0,0,1,.307.115.477.477,0,0,1,.153.345v2.876a.473.473,0,0,1-.46.5l-1.994.038a8,8,0,0,1-4.525-1.035q-1.5-1.035-1.534-3.912V80.1a.169.169,0,0,0-.192-.192H66.339a.477.477,0,0,1-.345-.153.415.415,0,0,1-.115-.307V76.761a.407.407,0,0,1,.46-.46h2.186a.169.169,0,0,0,.192-.192V71.622a.407.407,0,0,1,.46-.46h3.337a.415.415,0,0,1,.307.115.477.477,0,0,1,.153.345v4.487a.169.169,0,0,0,.192.192h3.912a.415.415,0,0,1,.307.115.477.477,0,0,1,.153.345v2.685Zm20.1,4.449a13.667,13.667,0,0,1,.153,2.148l-.038,1.189a.407.407,0,0,1-.46.46h-12a.169.169,0,0,0-.192.192,5.485,5.485,0,0,0,.345,1.726q.92,2.761,4.487,2.8a4.833,4.833,0,0,0,4.142-2.148.451.451,0,0,1,.383-.23.368.368,0,0,1,.268.115L97.1,92.1a.409.409,0,0,1,.115.614,7.861,7.861,0,0,1-3.145,2.608,10.4,10.4,0,0,1-4.41.92,9.305,9.305,0,0,1-5.1-1.342,7.758,7.758,0,0,1-3.03-3.758,15.081,15.081,0,0,1-.882-5.753,11.66,11.66,0,0,1,.46-3.6,7.749,7.749,0,0,1,2.915-4.257,8.436,8.436,0,0,1,5.1-1.534q7.555,0,8.514,7.9ZM89.12,79.829a3.816,3.816,0,0,0-2.378.729,3.7,3.7,0,0,0-1.3,1.956,6.658,6.658,0,0,0-.307,1.687q-.077.192.153.192H93.07a.17.17,0,0,0,.192-.192,7.229,7.229,0,0,0-.23-1.457A3.758,3.758,0,0,0,91.689,80.6a4.2,4.2,0,0,0-2.57-.767Zm21.86-3.758a4.441,4.441,0,0,1,2.148.5.476.476,0,0,1,.23.575l-.652,3.452q-.038.46-.537.268a4.249,4.249,0,0,0-1.342-.192,5.8,5.8,0,0,0-.767.038,4,4,0,0,0-2.685,1.112,3.738,3.738,0,0,0-1.074,2.761V95.437a.415.415,0,0,1-.115.307.477.477,0,0,1-.345.153h-3.528a.542.542,0,0,1-.46-.46V76.761a.477.477,0,0,1,.153-.345.415.415,0,0,1,.307-.115h3.528a.407.407,0,0,1,.46.46v1.726q0,.153.038.153.077.038.153-.077a5.064,5.064,0,0,1,4.487-2.493Zm21.9,5.292a14.508,14.508,0,0,1,.69,4.794,14.867,14.867,0,0,1-.652,4.679,8.037,8.037,0,0,1-2.685,3.95,7.606,7.606,0,0,1-4.717,1.419,5.434,5.434,0,0,1-4.372-1.956.125.125,0,0,0-.153-.038.155.155,0,0,0-.077.153v8.322a.415.415,0,0,1-.115.307.477.477,0,0,1-.345.153h-3.528a.542.542,0,0,1-.46-.46V76.761a.477.477,0,0,1,.153-.345.415.415,0,0,1,.307-.115h3.528a.407.407,0,0,1,.46.46v1.151a.155.155,0,0,0,.077.153q.077.038.153-.077a5.5,5.5,0,0,1,4.41-1.994,7.416,7.416,0,0,1,4.6,1.419,7.933,7.933,0,0,1,2.723,3.95Zm-4.986,9.4a8.452,8.452,0,0,0,1.151-4.679,8.915,8.915,0,0,0-.92-4.41,3.515,3.515,0,0,0-3.26-1.879,3.212,3.212,0,0,0-2.991,1.841,8.93,8.93,0,0,0-.882,4.449,8.947,8.947,0,0,0,.959,4.6,3.161,3.161,0,0,0,2.876,1.687A3.412,3.412,0,0,0,127.892,90.759Zm19.1-14.688a4.441,4.441,0,0,1,2.148.5.476.476,0,0,1,.23.575l-.652,3.452q-.038.46-.537.268a4.249,4.249,0,0,0-1.342-.192,5.8,5.8,0,0,0-.767.038,4,4,0,0,0-2.685,1.112,3.738,3.738,0,0,0-1.074,2.761V95.437a.415.415,0,0,1-.115.307.477.477,0,0,1-.345.153h-3.528a.542.542,0,0,1-.46-.46V76.761a.477.477,0,0,1,.153-.345.415.415,0,0,1,.307-.115h3.528a.407.407,0,0,1,.46.46v1.726q0,.153.038.153.077.038.153-.077a5.064,5.064,0,0,1,4.487-2.493Zm7.824-2.454a2.625,2.625,0,1,1,1.956-.767A2.649,2.649,0,0,1,154.815,73.616ZM152.974,95.9a.542.542,0,0,1-.46-.46V76.722a.542.542,0,0,1,.46-.46H156.5a.477.477,0,0,1,.345.153.415.415,0,0,1,.115.307V95.437a.415.415,0,0,1-.115.307.477.477,0,0,1-.345.153h-3.528Zm16.376.23a11.511,11.511,0,0,1-4.257-.729,6.354,6.354,0,0,1-2.8-1.956,4.266,4.266,0,0,1-1-2.761v-.345a.407.407,0,0,1,.46-.46h3.375a.407.407,0,0,1,.46.46v.077a2.066,2.066,0,0,0,1.035,1.687,4.87,4.87,0,0,0,2.685.69,4.557,4.557,0,0,0,2.493-.614,1.908,1.908,0,0,0,.959-1.611,1.463,1.463,0,0,0-.805-1.342,13.1,13.1,0,0,0-2.531-.92l-1.457-.46a21.567,21.567,0,0,1-3.3-1.227,6.491,6.491,0,0,1-2.263-1.8,4.362,4.362,0,0,1-.92-2.876,5.032,5.032,0,0,1,2.109-4.257,8.922,8.922,0,0,1,5.561-1.611,10.691,10.691,0,0,1,4.1.729,6.5,6.5,0,0,1,2.723,2.071,5.086,5.086,0,0,1,.959,3.03.407.407,0,0,1-.46.46h-3.26a.407.407,0,0,1-.46-.46,1.937,1.937,0,0,0-.959-1.649,4.641,4.641,0,0,0-2.685-.69,4.764,4.764,0,0,0-2.416.537,1.761,1.761,0,0,0-.959,1.572,1.477,1.477,0,0,0,.882,1.381,15.442,15.442,0,0,0,3.03,1.074l.844.23a29.635,29.635,0,0,1,3.413,1.227,6.984,6.984,0,0,1,2.339,1.764,4.458,4.458,0,0,1,.959,2.953,4.94,4.94,0,0,1-2.148,4.257A9.46,9.46,0,0,1,169.35,96.128ZM197.5,83.894a13.669,13.669,0,0,1,.153,2.148l-.038,1.189a.407.407,0,0,1-.46.46h-12a.17.17,0,0,0-.192.192,5.485,5.485,0,0,0,.345,1.726q.92,2.761,4.487,2.8a4.833,4.833,0,0,0,4.142-2.148.451.451,0,0,1,.384-.23.368.368,0,0,1,.268.115l2.378,1.956a.409.409,0,0,1,.115.614,7.807,7.807,0,0,1-3.183,2.608,10.142,10.142,0,0,1-4.372.92,9.305,9.305,0,0,1-5.1-1.342,7.758,7.758,0,0,1-3.03-3.758,15.08,15.08,0,0,1-.882-5.753,11.66,11.66,0,0,1,.46-3.6,7.822,7.822,0,0,1,2.876-4.257,8.608,8.608,0,0,1,5.139-1.534q7.555,0,8.514,7.9Zm-8.514-4.065a3.815,3.815,0,0,0-2.378.729,3.7,3.7,0,0,0-1.3,1.956A6.658,6.658,0,0,0,185,84.2q-.077.192.153.192h7.785a.17.17,0,0,0,.192-.192,7.229,7.229,0,0,0-.23-1.457,3.683,3.683,0,0,0-1.381-2.148,4.031,4.031,0,0,0-2.531-.767Z" transform="translate(66.908 168.602)" fill="#fff"/>
    <path id="Path_115498" data-name="Path 115498" d="M36.6,109.346a.505.505,0,0,1-.537-.384L29.278,83l-.038-.153q0-.345.422-.345h4.756a.481.481,0,0,1,.5.384l3.643,15.609q.038.153.115.153t.115-.153l3.528-15.57a.492.492,0,0,1,.5-.422h4.64a.505.505,0,0,1,.537.384l3.835,15.609a.247.247,0,0,0,.115.153q.077,0,.115-.153l3.528-15.57a.492.492,0,0,1,.5-.422h4.525q.537,0,.422.5l-6.29,25.964a.505.505,0,0,1-.537.384H49.643a.481.481,0,0,1-.5-.384L45.232,92.356q-.038-.153-.115-.153T45,92.356l-3.643,16.568a.459.459,0,0,1-.5.422Zm28.15,0a.477.477,0,0,1-.345-.153.415.415,0,0,1-.115-.307V82.96a.415.415,0,0,1,.115-.307.477.477,0,0,1,.345-.153H69.24a.542.542,0,0,1,.46.46v25.925a.542.542,0,0,1-.46.46ZM89.8,82.96a.415.415,0,0,1,.115-.307.477.477,0,0,1,.345-.153h4.487a.542.542,0,0,1,.46.46v25.925a.542.542,0,0,1-.46.46H90.41a.549.549,0,0,1-.537-.307L79.94,92.625q-.077-.115-.153-.077-.077,0-.077.153l.077,16.184a.542.542,0,0,1-.46.46H74.839a.477.477,0,0,1-.345-.153.415.415,0,0,1-.115-.307V82.96a.415.415,0,0,1,.115-.307.477.477,0,0,1,.345-.153h4.334a.549.549,0,0,1,.537.307L89.6,99.144q.077.115.153.077.077,0,.077-.153L89.8,82.96Zm28.61-.46a.542.542,0,0,1,.46.46v3.758a.542.542,0,0,1-.46.46h-6.865a.17.17,0,0,0-.192.192v21.515a.542.542,0,0,1-.46.46H106.4a.477.477,0,0,1-.345-.153.415.415,0,0,1-.115-.307V87.371a.169.169,0,0,0-.192-.192H99.077a.477.477,0,0,1-.345-.153.415.415,0,0,1-.115-.307V82.96a.415.415,0,0,1,.115-.307.477.477,0,0,1,.345-.153h19.329Zm22.55,4.18a.415.415,0,0,1-.115.307.477.477,0,0,1-.345.153H127.917a.17.17,0,0,0-.192.192v5.944a.17.17,0,0,0,.192.192h8.245a.415.415,0,0,1,.307.115.477.477,0,0,1,.153.345v3.72a.477.477,0,0,1-.153.345.415.415,0,0,1-.307.115h-8.245a.17.17,0,0,0-.192.192v6.213a.17.17,0,0,0,.192.192H140.5a.407.407,0,0,1,.46.46v3.72a.415.415,0,0,1-.115.307.477.477,0,0,1-.345.153H122.778a.477.477,0,0,1-.345-.153.415.415,0,0,1-.115-.307V82.96a.415.415,0,0,1,.115-.307.477.477,0,0,1,.345-.153H140.5a.477.477,0,0,1,.345.153.415.415,0,0,1,.115.307v3.72Zm18.485,22.665A.543.543,0,0,1,158.9,109L154.11,98.377a.246.246,0,0,0-.23-.153h-3.567a.169.169,0,0,0-.192.192v10.47a.542.542,0,0,1-.46.46h-4.487a.477.477,0,0,1-.345-.153.415.415,0,0,1-.115-.307V82.96a.415.415,0,0,1,.115-.307.477.477,0,0,1,.345-.153h10.968a8.882,8.882,0,0,1,4.3,1,6.843,6.843,0,0,1,2.876,2.838,8.535,8.535,0,0,1,1.035,4.257,7.5,7.5,0,0,1-1.3,4.449,6.907,6.907,0,0,1-3.643,2.646.183.183,0,0,0-.115.268l5.216,10.853a.589.589,0,0,1,.077.23q0,.307-.422.307h-4.717ZM150.314,87.14a.17.17,0,0,0-.192.192V93.89a.17.17,0,0,0,.192.192h5.024a3.605,3.605,0,0,0,2.608-.959,3.241,3.241,0,0,0,1.035-2.493,3.363,3.363,0,0,0-1.035-2.531,3.605,3.605,0,0,0-2.608-.959ZM62.605,140.525a.125.125,0,0,0-.038.153.155.155,0,0,0,.153.077H73.113a.407.407,0,0,1,.46.46v3.72a.415.415,0,0,1-.115.307.477.477,0,0,1-.345.153H55.855a.477.477,0,0,1-.345-.153.415.415,0,0,1-.115-.307v-3.528a.781.781,0,0,1,.23-.575q1.879-1.841,3.835-3.988,1.956-2.186,2.454-2.723,1.074-1.266,2.186-2.416,3.49-3.873,3.49-5.753a2.893,2.893,0,0,0-.959-2.224,4.1,4.1,0,0,0-4.986,0,2.981,2.981,0,0,0-.959,2.3v.959a.477.477,0,0,1-.153.345.415.415,0,0,1-.307.115H55.7a.415.415,0,0,1-.307-.115.477.477,0,0,1-.153-.345v-1.8a6.687,6.687,0,0,1,1.3-3.682,7.651,7.651,0,0,1,3.145-2.416,11.31,11.31,0,0,1,4.449-.844,10.679,10.679,0,0,1,4.756,1A7.971,7.971,0,0,1,72,122a7.114,7.114,0,0,1,1.074,3.835,7.626,7.626,0,0,1-.805,3.3,18.236,18.236,0,0,1-2.416,3.643q-1.189,1.5-2.569,2.953t-4.1,4.219l-.575.575Zm23.432,5.292a9.184,9.184,0,0,1-6.673-2.378,8.427,8.427,0,0,1-2.454-6.4V126.91a8.329,8.329,0,0,1,2.454-6.328,9.273,9.273,0,0,1,6.673-2.339,9.411,9.411,0,0,1,6.711,2.339A8.329,8.329,0,0,1,95.2,126.91v10.125a8.427,8.427,0,0,1-2.454,6.4A9.32,9.32,0,0,1,86.038,145.817Zm0-4.64A3.659,3.659,0,0,0,88.8,140.1a3.866,3.866,0,0,0,1-2.8V126.757a3.866,3.866,0,0,0-1-2.8,3.659,3.659,0,0,0-2.761-1.074,3.486,3.486,0,0,0-2.685,1.074,3.783,3.783,0,0,0-1.035,2.8V137.3a3.783,3.783,0,0,0,1.035,2.8A3.486,3.486,0,0,0,86.038,141.177Zm19.9-.652a.125.125,0,0,0-.038.153.155.155,0,0,0,.153.077H116.45a.407.407,0,0,1,.46.46v3.72a.415.415,0,0,1-.115.307.477.477,0,0,1-.345.153H99.192a.542.542,0,0,1-.46-.46v-3.528a.781.781,0,0,1,.23-.575q1.879-1.841,3.835-3.988,1.956-2.186,2.454-2.723,1.074-1.266,2.186-2.416,3.49-3.873,3.49-5.753a2.893,2.893,0,0,0-.959-2.224,4.1,4.1,0,0,0-4.986,0,2.981,2.981,0,0,0-.959,2.3v.959a.407.407,0,0,1-.46.46H99.039a.415.415,0,0,1-.307-.115.477.477,0,0,1-.153-.345v-1.8a6.687,6.687,0,0,1,1.3-3.682,7.61,7.61,0,0,1,3.183-2.416,11.031,11.031,0,0,1,4.41-.844,10.679,10.679,0,0,1,4.756,1A7.971,7.971,0,0,1,115.338,122a7.114,7.114,0,0,1,1.074,3.835,7.626,7.626,0,0,1-.805,3.3,18.236,18.236,0,0,1-2.416,3.643q-1.189,1.5-2.569,2.953t-4.1,4.219l-.575.575Zm31.371-7.363a12.421,12.421,0,0,1,.575,3.643,9.637,9.637,0,0,1-.614,3.528,7.674,7.674,0,0,1-3.106,3.912,9.488,9.488,0,0,1-5.216,1.419,9.348,9.348,0,0,1-5.1-1.381,7.7,7.7,0,0,1-3.145-3.835,11.128,11.128,0,0,1-.575-2.109v-.077q0-.422.46-.422h4.64a.491.491,0,0,1,.5.422,1.363,1.363,0,0,0,.115.384,2.105,2.105,0,0,1,.115.268,3.223,3.223,0,0,0,1.151,1.534,3.063,3.063,0,0,0,1.8.537,3.149,3.149,0,0,0,1.879-.575,3.345,3.345,0,0,0,1.189-1.611,4.469,4.469,0,0,0,.384-1.994,5.436,5.436,0,0,0-.345-1.994,2.578,2.578,0,0,0-1.074-1.534,3.309,3.309,0,0,0-1.879-.537,4.121,4.121,0,0,0-1.994.5,2.515,2.515,0,0,0-1.227,1.3.481.481,0,0,1-.5.384H120.63a.542.542,0,0,1-.46-.46V119.01a.542.542,0,0,1,.46-.46h15.839a.477.477,0,0,1,.345.153.415.415,0,0,1,.115.307v3.72a.415.415,0,0,1-.115.307.477.477,0,0,1-.345.153h-10.7a.169.169,0,0,0-.192.192l-.038,5.676q0,.268.23.115a7.2,7.2,0,0,1,3.989-1.112,8.363,8.363,0,0,1,4.717,1.342A7.489,7.489,0,0,1,137.313,133.161Z" transform="translate(81.764 209.229)" fill="#252530"/>
  </g>
</svg>
