<?xml version="1.0" encoding="UTF-8"?>
<svg id="Layer_2" data-name="Layer 2" xmlns="http://www.w3.org/2000/svg" xmlns:xlink="http://www.w3.org/1999/xlink" viewBox="0 0 400.14 92.35">
  <defs>
    <style>
      .cls-1 {
        clip-path: url(#clippath);
      }

      .cls-2 {
        fill: none;
      }

      .cls-2, .cls-3 {
        stroke-width: 0px;
      }

      .cls-3 {
        fill: #e04694;
      }
    </style>
    <clipPath id="clippath">
      <rect class="cls-2" width="400.14" height="92.35"/>
    </clipPath>
  </defs>
  <g id="Layer_1-2" data-name="Layer 1">
    <g class="cls-1">
      <path class="cls-3" d="m59.04,31.26c6.71.08,12.32,2.38,16.99,6.97,4.67,4.59,6.97,10.02,6.97,16.57l-.17,30.41c0,3.65-3.06,6.54-6.88,6.54s-6.8-2.97-6.71-6.63l.17-30.41c.08-2.72-1.02-5.35-3.06-7.22-1.95-1.95-4.42-2.97-7.39-2.97-2.89-.08-5.69,1.1-7.65,3.14-1.95,1.95-2.89,4.59-2.89,7.31l-.17,29.99c0,3.65-3.14,6.63-6.97,6.63s-6.88-3.06-6.88-6.71l.17-30.16c.08-2.63-.93-5.27-2.8-7.14-2.04-2.12-4.59-3.14-7.65-3.23-2.8-.08-5.44.93-7.39,2.89-2.04,1.95-3.06,4.33-3.06,7.14l-.17,30.33c0,3.65-3.06,6.63-6.88,6.54-3.74,0-6.8-2.97-6.8-6.63l.17-30.24c0-5.69,2.12-11.13,5.95-15.29,5.01-5.35,11.13-8.07,18.27-7.99,6.8.08,12.66,2.46,17.33,7.22,4.93-4.76,10.7-7.05,17.5-7.05h0Zm85.97,33.73l-38.99-.25c.34,4.67,1.87,8.41,4.67,11.21,2.8,2.72,6.37,4.16,10.62,4.16,3.4,0,6.2-.76,8.41-2.29,1.27-.93,2.72-2.29,4.25-4.25,1.95-2.46,5.44-3.14,8.24-1.7l.42.25c3.48,1.87,4.25,6.37,1.7,9.35-.42.51-.85,1.02-1.36,1.44-1.87,1.95-3.99,3.74-6.37,5.1-2.29,1.36-4.76,2.29-7.31,2.89-2.63.59-5.44.93-8.58.93-8.75-.08-15.8-2.8-21.15-8.33-5.27-5.52-7.9-12.83-7.82-21.92.08-9.01,2.72-16.31,7.9-21.83,5.27-5.44,12.15-8.16,20.73-8.07,8.67.08,15.55,2.8,20.47,8.16s7.39,12.74,7.39,22.09c0,1.7-1.53,3.06-3.23,3.06h0Zm-10.7-10.87c-1.87-7.05-6.37-10.53-13.68-10.62-1.61,0-3.14.17-4.67.68-1.44.42-2.8,1.19-3.99,2.12s-2.21,2.04-3.06,3.31c-.93,1.36-1.53,2.8-1.95,4.42l27.36.08Zm75.61,10.87l-38.99-.25c.34,4.67,1.87,8.41,4.67,11.21,2.8,2.72,6.37,4.16,10.62,4.16,3.4,0,6.2-.76,8.41-2.29,1.36-.93,2.72-2.29,4.25-4.25,1.95-2.46,5.44-3.14,8.24-1.7l.42.25c3.48,1.87,4.25,6.37,1.7,9.35-.42.51-.85,1.02-1.36,1.44-1.87,1.95-3.99,3.74-6.37,5.1-2.29,1.36-4.76,2.29-7.31,2.89-2.63.59-5.44.93-8.58.93-8.75-.08-15.89-2.8-21.15-8.33-5.27-5.52-7.9-12.83-7.82-21.92.08-9.01,2.72-16.31,7.9-21.83,5.27-5.44,12.15-8.16,20.73-8.07,8.67.08,15.55,2.8,20.47,8.16,4.93,5.35,7.39,12.74,7.39,22.09,0,1.7-1.44,3.06-3.23,3.06h0Zm-10.7-10.87c-1.87-7.05-6.37-10.53-13.68-10.62-1.61,0-3.14.17-4.67.68-2.89.93-5.35,2.8-7.05,5.35-.93,1.36-1.53,2.8-1.95,4.42l27.36.17ZM285.03,0c3.82,0,6.88,3.06,6.88,6.8l-.25,29.82c5.01-4.25,10.45-5.27,16.48-5.18,5.95,0,12.23,2.63,16.31,6.88,3.48,3.74,5.1,9.68,5.1,17.84l-.17,28.97c0,3.74-3.14,6.71-6.97,6.71s-6.97-3.06-6.88-6.8l.17-27.7c0-4.67-.76-8.07-2.46-10.11-1.7-2.12-4.42-3.14-8.24-3.14-4.84,0-8.33,1.44-10.28,4.25-1.95,2.97-2.97,7.99-3.06,15.21l-.17,21.49c0,3.74-3.14,6.71-7.05,6.63-3.82,0-6.88-3.06-6.88-6.8l.59-77.99c-.08-3.99,3.06-6.97,6.88-6.88h0Zm52.76,61.85c.08-8.07,3.06-14.87,9.09-20.47,5.95-5.61,13.25-8.41,21.83-8.33,8.58.08,15.89,2.97,21.83,8.67,5.86,5.69,8.75,12.74,8.75,20.98-.08,8.41-3.06,15.29-9.09,20.98-6.03,5.61-13.42,8.33-22.09,8.24-8.67-.08-15.89-2.97-21.66-8.75-5.86-5.61-8.75-12.74-8.67-21.32h0Zm13.59.34c0,5.61,1.44,9.94,4.5,13.25,3.14,3.31,7.31,5.01,12.49,5.01s9.35-1.53,12.49-4.76c3.14-3.23,4.76-7.56,4.76-12.91s-1.44-9.77-4.59-13c-3.14-3.31-7.31-5.01-12.49-5.01s-9.18,1.61-12.4,4.84c-3.06,3.14-4.67,7.39-4.76,12.57h0Zm-89.2-1.19c4.16,3.06,6.29,7.05,6.37,11.89v.17c0,5.95-2.29,10.79-6.71,14.1-3.99,3.06-9.52,4.67-15.97,4.67-6.88,0-14.1-1.95-20.39-5.44-3.31-1.78-4.33-5.95-2.21-9.09,1.27-1.78,3.31-2.89,5.52-2.89,1.19,0,2.29.25,3.23.85,4.76,2.63,9.68,4.08,14.19,4.08,7.05,0,7.82-3.4,7.82-4.93v-.17c0-2.97-4.08-4.42-10.7-6.37-.42-.17-.93-.25-1.36-.42-4.42-1.19-9.01-2.72-12.57-5.27-4.25-3.06-6.29-7.05-6.29-12.32v-.17c0-10.7,9.01-18.18,21.75-18.18,5.35,0,11.3,1.27,16.65,3.74,1.61.76,2.97,2.12,3.57,3.82s.34,3.57-.51,5.1h0c-1.19,2.04-3.4,3.31-5.78,3.31-.93,0-1.95-.17-2.8-.59-4.16-1.87-8.07-2.89-11.38-2.89-4.16,0-6.88,1.7-6.88,4.33v.17c0,3.06,5.35,4.76,11.13,6.54l1.1.34c4.08,1.36,8.58,2.97,12.23,5.61h0Z"/>
    </g>
  </g>
</svg>